<svg width="24" height="24" viewBox="0 0 24 24" fill="none" xmlns="http://www.w3.org/2000/svg">
<g clip-path="url(#clip0_910_2627)">
<path fill-rule="evenodd" clip-rule="evenodd" d="M12 1.04908L12.4629 0.329075C12.3247 0.240463 12.1641 0.193359 12 0.193359C11.8359 0.193359 11.6753 0.240463 11.5371 0.329075L12 1.04908ZM12 1.04908L11.5371 0.329075H11.5337L11.5303 0.332504L11.5166 0.341075L11.4754 0.368504L11.3263 0.471361C10.587 1.00642 9.90767 1.61968 9.3 2.3005C8.20286 3.5365 7.02514 5.39479 7.02514 7.69365C7.02514 8.90222 7.58743 10.0268 8.532 10.8325C9.47143 11.6365 10.7194 12.0685 12 12.0685C13.2806 12.0685 14.5286 11.6365 15.468 10.8342C16.4126 10.0268 16.9766 8.90222 16.9766 7.69365C16.9766 5.39479 15.7954 3.5365 14.7 2.30222C14.0514 1.57632 13.3215 0.927476 12.5246 0.368504L12.4834 0.342789L12.4697 0.332504L12.4663 0.329075H12.4629L12 1.04908ZM10.2857 23.8079C10.2857 20.3519 10.2857 17.1634 9.00171 14.3622C8.87704 14.1053 8.6812 13.8895 8.43747 13.7406C8.19375 13.5917 7.9124 13.5159 7.62686 13.5222C7.19523 13.5227 6.78144 13.6945 6.47639 13.9998C6.17135 14.3052 6 14.7192 6 15.1508V17.2388C5.99979 17.3667 5.96338 17.4919 5.89498 17.5999C5.82657 17.708 5.72897 17.7944 5.61347 17.8493C5.49797 17.9042 5.36928 17.9253 5.24231 17.91C5.11534 17.8948 4.99527 17.844 4.896 17.7634C4.58446 17.5095 4.3333 17.1896 4.16073 16.8266C3.98816 16.4637 3.89852 16.0669 3.89829 15.6651V9.47136C3.89829 8.95442 3.69293 8.45864 3.32739 8.09311C2.96186 7.72757 2.46609 7.52222 1.94914 7.52222C1.4322 7.52222 0.936426 7.72757 0.570891 8.09311C0.205356 8.45864 0 8.95442 0 9.47136L0 17.5696C0 18.4525 0.301714 19.3114 0.852 20.0022L3.89314 23.8079H10.2857ZM14.9983 14.3622C13.7143 17.1634 13.7143 20.3519 13.7143 23.8079H20.1086L23.148 20.0022C23.6983 19.3114 24 18.4542 24 17.5679V9.47307C24 8.95613 23.7946 8.46036 23.4291 8.09482C23.0636 7.72929 22.5678 7.52393 22.0509 7.52393C21.5339 7.52393 21.0381 7.72929 20.6726 8.09482C20.3071 8.46036 20.1017 8.95613 20.1017 9.47307V15.6668C20.1017 16.4811 19.7349 17.2508 19.104 17.7651C19.0047 17.8457 18.8847 17.8965 18.7577 17.9118C18.6307 17.927 18.502 17.9059 18.3865 17.851C18.271 17.7961 18.1734 17.7097 18.105 17.6016C18.0366 17.4936 18.0002 17.3684 18 17.2405V15.1491C18 14.7172 17.8284 14.3029 17.523 13.9975C17.2176 13.6921 16.8034 13.5205 16.3714 13.5205C16.0862 13.5145 15.8052 13.5905 15.5618 13.7393C15.3184 13.8882 15.1228 14.1038 14.9983 14.3605" fill="white"/>
</g>
<defs>
<clipPath id="clip0_910_2627">
<rect width="24" height="24" fill="white"/>
</clipPath>
</defs>
</svg>
