<svg width="45" height="45" viewBox="0 0 45 45" fill="none" xmlns="http://www.w3.org/2000/svg">
<g clip-path="url(#clip0_2905_2111)">
<path d="M9.95361 11.25C11.5649 9.44824 13.4546 8.06396 15.6226 7.09717C17.7905 6.13037 20.083 5.63965 22.5 5.625C22.9688 5.625 23.4375 5.64697 23.9062 5.69092C24.375 5.73486 24.8438 5.79346 25.3125 5.8667V8.72314C24.8438 8.63525 24.375 8.56934 23.9062 8.52539C23.4375 8.48145 22.9688 8.45215 22.5 8.4375C20.9766 8.4375 19.5117 8.6792 18.1055 9.1626C16.6992 9.646 15.3809 10.3418 14.1504 11.25H9.95361ZM36.2769 25.3125C36.3647 24.8438 36.4307 24.375 36.4746 23.9062C36.5186 23.4375 36.5479 22.9688 36.5625 22.5C36.5625 22.0312 36.5405 21.5625 36.4966 21.0938C36.4526 20.625 36.3794 20.1562 36.2769 19.6875H39.1333C39.2065 20.1562 39.2651 20.625 39.3091 21.0938C39.353 21.5625 39.375 22.0312 39.375 22.5C39.375 22.9688 39.353 23.4375 39.3091 23.9062C39.2651 24.375 39.2065 24.8438 39.1333 25.3125H36.2769ZM11.3159 30.9375C11.9751 31.8164 12.7222 32.6001 13.5571 33.2886C14.3921 33.9771 15.2856 34.5703 16.2378 35.0684C17.1899 35.5664 18.2007 35.9326 19.27 36.167C20.3394 36.4014 21.416 36.5332 22.5 36.5625C22.9688 36.5625 23.4375 36.5405 23.9062 36.4966C24.375 36.4526 24.8438 36.3794 25.3125 36.2769V39.1333C24.8438 39.2065 24.375 39.2651 23.9062 39.3091C23.4375 39.353 22.9688 39.375 22.5 39.375C20.9912 39.375 19.5264 39.1846 18.1055 38.8037C16.6846 38.4229 15.3442 37.8589 14.0845 37.1118C12.8247 36.3647 11.6675 35.4785 10.6128 34.4531C9.55811 33.4277 8.65723 32.2559 7.91016 30.9375H11.3159ZM45 2.8125V16.875H28.125V2.8125H45ZM42.1875 5.625H30.9375V14.0625H42.1875V5.625ZM28.125 28.125H45V42.1875H28.125V28.125ZM30.9375 39.375H42.1875V30.9375H30.9375V39.375ZM16.875 28.125H0V14.0625H16.875V28.125ZM14.0625 16.875H2.8125V25.3125H14.0625V16.875Z" fill="#D4A017"/>
</g>
<defs>
<clipPath id="clip0_2905_2111">
<rect width="45" height="45" fill="white"/>
</clipPath>
</defs>
</svg>
