<svg width="20" height="20" viewBox="0 0 20 20" fill="none" xmlns="http://www.w3.org/2000/svg">
<path d="M15.1117 9.16699C15.5958 13.6462 17.5 15.0003 17.5 15.0003H2.5C2.5 15.0003 5 13.2228 5 7.00033C5 5.58616 5.52667 4.22949 6.46417 3.22949C7.40167 2.22949 8.675 1.66699 10 1.66699C10.2817 1.66699 10.5594 1.69199 10.8333 1.74199M11.4417 17.5003C11.2952 17.7529 11.0849 17.9625 10.8319 18.1083C10.5788 18.254 10.292 18.3307 10 18.3307C9.70802 18.3307 9.42116 18.254 9.16814 18.1083C8.91513 17.9625 8.70484 17.7529 8.55833 17.5003M15.8333 6.66699C16.4964 6.66699 17.1323 6.4036 17.6011 5.93476C18.0699 5.46592 18.3333 4.83003 18.3333 4.16699C18.3333 3.50395 18.0699 2.86807 17.6011 2.39923C17.1323 1.93038 16.4964 1.66699 15.8333 1.66699C15.1703 1.66699 14.5344 1.93038 14.0656 2.39923C13.5967 2.86807 13.3333 3.50395 13.3333 4.16699C13.3333 4.83003 13.5967 5.46592 14.0656 5.93476C14.5344 6.4036 15.1703 6.66699 15.8333 6.66699Z" stroke="#0B6B3A" stroke-width="1.5" stroke-linecap="round" stroke-linejoin="round"/>
<circle cx="16" cy="4" r="4" fill="#E00000"/>
</svg>
